# xmcd CD database file
#
# Track frame offsets:
#	150
#	22859
#	61807
#	81806
#	96319
#	114494
#	134525
#	155347
#	173154
#	185983
#	203680
#	224119
#	235611
#	249936
#	271047
#	283791
#	300063
#	311456
#
# Disc length: 4489 seconds
#
# Revision: 10
# Processed by: cddbd v1.5.2PL0 Copyright (c) Steve Scherf et al.
# Submitted via: CDex 1.70beta2
#
DISCID=ef118712
DTITLE=Various Artist - While My Guitar Gently Weeps [Disc 2 of 2]
DYEAR=2002
DGENRE=Blues
TTITLE0=Robert Plant - Big Log
TTITLE1=Prince - Purple Rain
TTITLE2=Chris Rea - The Road to Hell (Part 2)
TTITLE3=Gary Moore and Phil Lynott - Parisienne Walkways
TTITLE4=The Allman Brothers Band - Jessica
TTITLE5=Matthews' Southern Comfort - Woodstock
TTITLE6=Lynyrd Skynyrd - Sweet Home Alabama
TTITLE7=Joe Walsh - Turn to Stone
TTITLE8=Fleetwood Mac - Black Magic Woman
TTITLE9=Toto - Hold the Line
TTITLE10=Boston - More Than a Feeling
TTITLE11=Steve Earle - Guitar Town
TTITLE12=Robert Palmer - Bad Case of Loving You (Doctor Doctor)
TTITLE13=Wishbone Ash - Jail Bait
TTITLE14=J.J. Cale - Cocaine
TTITLE15=Justin Hayward and John Lodge - Blue Guitar
TTITLE16=Mark Knopfler - Going Home
TTITLE17=Thin Lizzy - Whiskey in the Jar
EXTD=CDDBSort:various_artists,while_my_guitar_gently_weeps_disc_2_of_2 - YEAR: 2002
EXTT0=
EXTT1=
EXTT2=
EXTT3=
EXTT4=
EXTT5=
EXTT6=
EXTT7=
EXTT8=
EXTT9=
EXTT10=
EXTT11=
EXTT12=
EXTT13=
EXTT14=
EXTT15=
EXTT16=Entitled "Going Home - Theme of the Local Hero"
EXTT17=
PLAYORDER=
